# xmcd
#
# Track frame offsets: 
#        150
#        11637
#        26240
#        37745
#        49800
#        62455
#        74415
#        86432
#        98017
#        108595
#        118205
#        128975
#        137895
#        150902
#        165277
#        178137
#        192722
#        206667
#        217520
#        229277
#        243437
#
# Disc length: 3413 seconds
#
# Revision: 4
# Processed by: cddbd v1.5.2PL0 Copyright (c) Steve Scherf et al.
# Submitted via: ExactAudioCopyFreeDBPlugin 1.0
#
DISCID=210d5315
DTITLE=Various Artist - Sweet Dreams Of Country - D4
DYEAR=1989
DGENRE=Country
TTITLE0=Elvis Presley - You Don't Have To Say You Love Me
TTITLE1=Dolly Parton - Harper Valley P.T.A.
TTITLE2=Glen Campbell - Dream Baby (How Long Must I Dream)
TTITLE3=Brenda Lee - Break It To Me Gently
TTITLE4=Sonny James - Since I Met You Baby
TTITLE5=Sonny James - Only The Lonely
TTITLE6=Elvis Presley - I Want You, I Need You, I Love You
TTITLE7=Dottie West - Here Comes My Baby
TTITLE8=Hank Williams, Jr. - Ain't That A Shame
TTITLE9=Johnny and Jonies Mosby - Hold Me, Thrill Me, Kiss Me
TTITLE10=Eddy Arnold - Hey, Good Lookin'
TTITLE11=Patsy Cline - Any Time
TTITLE12=Jim Reeves - Distant Drums
TTITLE13=Patsy Cline - With My Eyes Wide Open, I'm Dreaming
TTITLE14=Tennessee Ernie Ford - My Old Kentucky Home (Turpentine And D
TTITLE14=andelion Wine)
TTITLE15=Willie Nelson - Sweet Memories
TTITLE16=Dolly Parton - Coat Of Many Colors
TTITLE17=Don Gibson - Lonesome Number One
TTITLE18=Patti Page - Mom And Dad's Waltz
TTITLE19=Elvis Presley - Are You Lonesome Tonight
TTITLE20=Eddy Arnold - Then You Can Tell Me Goodbye
EXTD=
EXTT0=
EXTT1=
EXTT2=
EXTT3=
EXTT4=
EXTT5=
EXTT6=
EXTT7=
EXTT8=
EXTT9=
EXTT10=
EXTT11=
EXTT12=
EXTT13=
EXTT14=
EXTT15=
EXTT16=
EXTT17=
EXTT18=
EXTT19=
EXTT20=
PLAYORDER=
